<svg width="300" height="300" viewBox="0 0 300 300" fill="none" xmlns="http://www.w3.org/2000/svg">
<path d="M210.947 235.839L198.539 194.769C207.354 193.144 215.44 188.781 221.66 182.293C225.226 178.2 227.942 173.432 229.649 168.269C231.357 163.106 232.02 157.652 231.602 152.227C232.045 142.629 228.974 133.201 222.97 125.726C220.489 122.533 217.321 119.947 213.704 118.162C210.086 116.377 206.114 115.439 202.084 115.42C187.8 115.42 178.989 123.892 175.649 140.836L169.329 173.537C166.483 192.037 157.621 209.068 144.127 221.968C132.148 233.171 116.324 239.279 99.9662 239.016C90.3912 238.976 80.9349 236.881 72.2295 232.872C63.524 228.863 55.7699 223.032 49.4853 215.769C34.5327 198.735 26.8621 176.46 28.1369 153.777C27.9921 140.154 30.2626 126.614 34.842 113.792C38.573 103.014 44.6259 93.197 52.5681 85.0435C59.3289 78.187 67.1339 72.4583 75.6891 68.0732C83.654 63.9543 92.2985 61.3284 101.199 60.3242L113.299 103.176C101.415 103.953 90.2511 109.178 82.0089 117.822C73.1515 127.823 68.6053 140.95 69.3694 154.319C68.7306 164.251 71.4463 174.108 77.0764 182.293C79.4743 185.552 82.6168 188.182 86.2386 189.962C89.8604 191.743 93.855 192.621 97.8853 192.522C101.199 192.523 104.478 191.835 107.515 190.502C110.552 189.168 113.282 187.218 115.534 184.773C120.92 178.951 124.438 171.634 125.631 163.773L132.336 131.072C135.226 114.045 143.305 98.3399 155.457 86.1283C167.214 75.0864 182.844 69.1793 198.924 69.7005C208.825 69.599 218.624 71.7161 227.609 75.8981C236.594 80.0801 244.54 86.2219 250.869 93.8773C264.958 109.949 272.427 130.814 271.755 152.227C271.906 164.477 269.977 176.663 266.052 188.26C262.836 197.769 257.573 206.448 250.638 213.677C244.999 219.563 238.502 224.554 231.371 228.477C224.934 231.868 218.061 234.346 210.947 235.839Z" fill="#4E34E3"/>
<path d="M229.536 216.347C229.853 202.656 219.07 191.3 205.453 190.982C191.836 190.664 180.541 201.505 180.225 215.196C179.909 228.887 190.691 240.244 204.308 240.562C217.925 240.88 229.22 230.039 229.536 216.347Z" fill="#FF7084"/>
<path d="M122.66 84.3884C122.977 70.6972 112.194 59.3406 98.577 59.0227C84.96 58.7048 73.6649 69.5461 73.3488 83.2373C73.0327 96.9284 83.8151 108.285 97.4322 108.603C111.049 108.921 122.344 98.0795 122.66 84.3884Z" fill="#00D09D"/>
</svg>
